<svg xmlns="http://www.w3.org/2000/svg" width="400" height="400" viewBox="0 0 400 400" version="1.1"><path d="M 262.789 1.750 C 261.326 3.434, 259.856 8.067, 249.466 43.750 C 246.863 52.688, 244.324 60, 243.823 60 C 243.322 60, 241.695 58.856, 240.206 57.457 C 230.433 48.275, 217.747 41.217, 202 36.202 C 188.156 31.793, 178.910 30.119, 161.531 28.876 C 133.475 26.870, 112.862 30.081, 93.422 39.485 C 86.108 43.024, 83.119 45.187, 78.037 50.620 C 66.245 63.226, 62.184 76.366, 63.389 98.022 C 64.987 126.728, 72.254 154.646, 82.839 172.737 C 96.305 195.753, 105.255 203.293, 152.722 231.613 C 184.979 250.858, 188 252.882, 188 255.251 C 188 258.243, 185.811 265, 184.842 265 C 184.379 265, 184 264.357, 184 263.571 C 184 259.339, 183.174 259.262, 139.544 259.456 C 112.944 259.574, 97.593 260.007, 96.942 260.658 C 96.253 261.347, 96.924 266.761, 99.023 277.458 C 100.727 286.139, 101.925 293.752, 101.686 294.375 C 101.447 294.998, 99.508 296.124, 97.376 296.877 C 83.085 301.927, 64.950 313.528, 51.163 326.439 C 44.259 332.904, 37.256 342.236, 33.745 349.648 C 30.862 355.736, 30.500 357.466, 30.500 365.164 C 30.500 373.181, 30.724 374.144, 33.500 378.069 C 40.562 388.052, 49.125 391.803, 66.889 392.696 C 81.162 393.414, 88.768 392.033, 109.538 384.954 C 122.386 380.574, 133.389 375.649, 140.589 371.053 C 142.460 369.859, 143.454 370.190, 150.089 374.215 C 160.507 380.534, 164.249 382.334, 174.500 385.954 C 192.101 392.170, 203.609 393.976, 226.293 394.079 C 244.343 394.161, 256.716 392.492, 269 388.320 C 289.994 381.188, 305.691 368.460, 311.004 354.260 C 314.282 345.497, 315.499 332.469, 314.106 321.049 C 311.193 297.174, 302.762 264.800, 294.887 247.248 C 292.054 240.935, 292.013 240.629, 293.668 238.108 C 296.470 233.840, 302.663 222.340, 309.594 208.535 C 318.338 191.119, 321.886 178.486, 322.663 162 C 323.718 139.588, 321.610 133.202, 299.717 92.500 C 286.331 67.612, 284.959 64.486, 282.876 54.135 C 281.836 48.960, 280.353 42.200, 279.581 39.113 C 278.810 36.026, 277.657 29.450, 277.020 24.500 C 275.444 12.261, 273.892 3.850, 272.822 1.750 C 272.208 0.546, 270.742 0, 268.120 0 C 265.737 0, 263.740 0.656, 262.789 1.750 M 265.731 4.695 C 265.481 5.138, 264.524 8.200, 263.605 11.500 C 262.686 14.800, 260.839 21.100, 259.500 25.500 C 258.162 29.900, 256.321 36.200, 255.409 39.500 C 254.497 42.800, 253.379 46.400, 252.926 47.500 C 252.472 48.600, 251.152 52.999, 249.991 57.275 C 247.987 64.661, 248.015 69, 250.067 69 C 250.580 69, 251 69.627, 251 70.393 C 251 71.159, 251.675 72.045, 252.500 72.362 C 253.325 72.678, 254 73.626, 254 74.469 C 254 75.311, 254.450 76, 255 76 C 255.550 76, 256 76.554, 256 77.231 C 256 77.908, 256.872 80.720, 257.937 83.481 C 261.013 91.451, 261.326 92.383, 261.635 94.500 C 262.722 101.963, 263.309 102.993, 268.858 107.156 C 276.979 113.249, 290.360 126.929, 294.026 132.887 C 295.756 135.699, 297.530 138, 297.969 138 C 298.408 138, 299.011 138.787, 299.309 139.750 C 299.608 140.713, 301.069 144.875, 302.555 149 C 307.342 162.281, 306.420 184.552, 300.618 195.771 C 299.728 197.492, 299 199.728, 299 200.739 C 299 201.750, 298.100 204.342, 297 206.500 C 295.900 208.658, 295 211.140, 295 212.016 C 295 212.892, 293.650 215.737, 292 218.339 C 290.350 220.941, 289 223.348, 289 223.688 C 289 224.908, 283.887 234.621, 279.887 241 C 275.091 248.649, 271.828 255.161, 272.471 255.804 C 273.159 256.492, 279.313 250.952, 282.071 247.161 C 283.407 245.325, 285.662 242.400, 287.081 240.661 C 288.501 238.922, 289.974 236.825, 290.356 236 C 290.737 235.175, 292.814 231.350, 294.972 227.500 C 304.473 210.551, 311.899 194.318, 315.558 182.500 C 318.025 174.534, 318.353 171.891, 318.409 159.500 C 318.483 143.252, 316.694 133.947, 311.800 125.122 C 308.309 118.827, 308.136 118.487, 304.851 111.500 C 303.558 108.750, 301.333 104.700, 299.906 102.500 C 298.479 100.300, 294.904 93.550, 291.961 87.500 C 289.017 81.450, 286.329 76.275, 285.986 76 C 284.416 74.742, 279.296 59.908, 278.391 54 C 278.096 52.075, 277.155 47.125, 276.299 43 C 275.442 38.875, 274.581 34.600, 274.384 33.500 C 274.187 32.400, 273.524 29.025, 272.911 26 C 272.297 22.975, 271.278 16.905, 270.647 12.510 C 269.778 6.453, 269.099 4.444, 267.843 4.205 C 266.932 4.031, 265.982 4.252, 265.731 4.695 M 124.729 35.512 C 104.088 38.982, 88.191 46.704, 78.233 58.097 C 67.610 70.252, 65.584 90.936, 71.680 125 C 73.771 136.687, 79.538 155.383, 83.071 161.928 C 84.682 164.913, 86 167.773, 86 168.284 C 86 168.794, 87.350 170.917, 89 173 C 90.650 175.083, 92 177.077, 92 177.431 C 92 178.797, 102.269 190.800, 106.280 194.121 C 111.727 198.633, 119.603 204, 120.775 204 C 121.278 204, 122.547 204.949, 123.595 206.108 C 124.643 207.268, 126.894 208.955, 128.597 209.858 C 134.865 213.181, 142.348 217.582, 146.917 220.632 C 149.498 222.355, 153.385 224.665, 155.555 225.766 C 163.327 229.708, 167.265 231.928, 168.869 233.272 C 169.766 234.023, 173.875 236.592, 178 238.981 C 182.125 241.369, 186.573 244.151, 187.885 245.162 C 189.197 246.173, 190.810 247, 191.471 247 C 192.608 247, 211 185.498, 211 181.696 C 211 180.663, 209.161 179.152, 206.250 177.792 C 202.008 175.812, 188.929 168.537, 185 165.974 C 184.175 165.436, 182.600 164.554, 181.500 164.015 C 179.341 162.957, 174.696 160.074, 168.308 155.829 C 164.341 153.192, 156.772 144.863, 153.925 140 C 152.599 137.736, 149.034 127.154, 147.018 119.500 C 146.584 117.850, 146.156 112.225, 146.067 107 C 145.879 95.912, 147.926 90.235, 153.293 86.963 C 157.359 84.484, 165.846 84.440, 171.825 86.867 C 177.167 89.035, 180.882 95.257, 184.651 108.347 C 187.002 116.511, 187.911 120.865, 189.800 133 L 190.500 137.500 220.500 137.653 C 237 137.737, 254.213 138.053, 258.750 138.354 C 263.288 138.656, 267 138.579, 267 138.183 C 267 137.787, 265.650 132.079, 264 125.500 C 262.350 118.921, 261 112.800, 261 111.900 C 261 110.999, 259.858 106.940, 258.462 102.881 C 257.067 98.821, 255.472 93.733, 254.918 91.574 C 253.684 86.765, 248.084 75.246, 244.869 70.906 C 241.496 66.351, 231.867 56.933, 229.500 55.874 C 228.400 55.382, 225.700 53.848, 223.500 52.465 C 210.840 44.509, 193.616 38.447, 176.500 35.923 C 161.288 33.679, 136.786 33.484, 124.729 35.512 M 156.750 91.080 C 151.691 94.027, 150.519 106.297, 153.942 120.500 C 157.699 136.091, 162.139 143.084, 173.081 150.641 C 179.721 155.226, 212.076 173.257, 212.645 172.688 C 212.897 172.436, 218.968 149.830, 219.745 146.250 L 220.233 144 203.739 144 C 190.940 144, 186.988 143.691, 186.100 142.621 C 185.471 141.862, 182.715 131.400, 179.977 119.371 C 174.946 97.272, 173.513 93.634, 168.904 91.265 C 166.005 89.775, 159.169 89.671, 156.750 91.080 M 267 113.772 C 267 114.197, 268.121 119.935, 269.492 126.522 C 272.096 139.036, 272.507 142.918, 271.250 143.122 C 270.837 143.189, 262.661 143.526, 253.081 143.872 L 235.661 144.500 234.905 147 C 234.489 148.375, 232.048 156.396, 229.481 164.824 C 226.914 173.252, 224.968 180.295, 225.157 180.475 C 225.346 180.656, 231.125 184.508, 238 189.036 C 255.611 200.635, 267.381 209.708, 275.473 217.922 C 279.308 221.815, 282.806 225, 283.245 225 C 284.664 225, 292.464 206.553, 297.833 190.500 C 302.688 175.981, 302.442 159.250, 297.206 147.914 C 294.114 141.218, 282.841 125.311, 278.134 121 C 270.279 113.806, 267 111.677, 267 113.772 M 224.479 145.250 C 221.837 152.465, 220 158.701, 220 160.457 C 220 161.635, 219.577 163.028, 219.060 163.550 C 218.543 164.072, 217.909 165.625, 217.652 167 C 217.394 168.375, 216.700 170.746, 216.109 172.270 C 215.518 173.793, 214.337 178.068, 213.484 181.770 C 212.632 185.471, 211.055 190.862, 209.981 193.749 C 208.908 196.636, 207.790 200.354, 207.498 202.012 C 206.832 205.794, 202.807 220.554, 199.048 233 C 197.470 238.225, 193.918 250.600, 191.154 260.500 C 186.575 276.904, 186.196 279.056, 186.884 284.771 C 187.299 288.221, 187.719 291.258, 187.819 291.521 C 187.919 291.785, 188.027 292.788, 188.060 293.750 C 188.127 295.700, 191.492 284.511, 193.397 276 C 194.075 272.975, 195.162 269.233, 195.814 267.685 C 196.466 266.137, 197 264.039, 197 263.024 C 197 262.009, 197.848 258.775, 198.883 255.839 C 201.017 249.790, 204.178 239.673, 206.018 233 C 206.701 230.525, 207.829 226.700, 208.526 224.500 C 209.223 222.300, 210.341 218.475, 211.011 216 C 211.680 213.525, 212.587 210.600, 213.026 209.500 C 213.465 208.400, 215.043 202.775, 216.532 197 C 218.022 191.225, 219.903 184.700, 220.713 182.500 C 221.522 180.300, 222.113 178.500, 222.027 178.500 C 221.941 178.500, 222.069 177.825, 222.311 177 C 222.553 176.175, 223.770 171.900, 225.016 167.500 C 226.262 163.100, 228.118 156.995, 229.140 153.933 C 231.871 145.758, 231.664 144, 227.969 144 C 226.301 144, 224.731 144.563, 224.479 145.250 M 222.130 188.343 C 220.833 189.906, 202.990 250.912, 203.018 253.690 C 203.028 254.685, 205.373 257.454, 208.230 259.843 C 218.153 268.138, 224.737 282.926, 229.443 307.487 C 231.709 319.313, 228.917 331.833, 223.164 335.650 C 219.156 338.309, 208.711 339.121, 203.096 337.210 C 198.687 335.710, 193 331.197, 193 329.199 C 193 328.674, 192.325 327.685, 191.500 327 C 190.675 326.315, 190 324.775, 190 323.578 C 190 322.380, 189.611 320.973, 189.135 320.450 C 188.659 319.928, 187.729 316.575, 187.068 313 C 186.406 309.425, 185.219 303.575, 184.428 300 C 182.840 292.817, 180.447 281.543, 178.662 272.830 C 178.023 269.712, 177.238 266.900, 176.917 266.581 C 176.001 265.670, 114.811 264.668, 108.470 265.460 L 102.784 266.171 103.488 269.335 C 104.232 272.683, 106.446 283.474, 107.933 291 C 109.965 301.282, 115.671 321.602, 117.903 326.500 C 119.390 329.763, 126.387 343.961, 127.897 346.779 C 129.958 350.625, 142.813 363.255, 148 366.530 C 154.412 370.579, 166.488 376.725, 173.500 379.507 C 199.370 389.774, 239.906 391.579, 264.405 383.555 C 273.370 380.618, 286.257 374.600, 287.952 372.558 C 288.663 371.701, 289.827 371, 290.538 371 C 292.168 371, 302.174 359.606, 304.431 355.179 C 308.401 347.393, 309.179 326.494, 306.130 309.500 C 305.637 306.750, 304.505 300.450, 303.615 295.500 C 301.360 282.963, 298.897 272.716, 297.803 271.324 C 297.294 270.677, 296.977 269.552, 297.097 268.824 C 297.217 268.096, 297.090 266.825, 296.816 266 C 296.541 265.175, 295.532 262.025, 294.575 259 C 292.464 252.333, 289.082 245, 288.116 245 C 287.729 245, 285.406 247.419, 282.956 250.376 C 277.789 256.610, 273.292 260, 270.188 260 C 266.416 260, 267.425 255.138, 272.953 246.669 C 279.609 236.474, 281.207 233.218, 280.548 231.200 C 278.844 225.984, 248.691 200, 244.342 200 C 243.765 200, 242.160 198.988, 240.777 197.750 C 239.394 196.512, 236.965 194.798, 235.381 193.939 C 233.796 193.081, 230.423 191.161, 227.885 189.674 C 224.045 187.422, 223.080 187.199, 222.130 188.343 M 201.686 263.732 C 200.339 266.006, 191.618 295.102, 191.258 298.520 C 190.752 303.329, 194.159 317.734, 197.272 323.948 C 200.090 329.574, 203.541 332.081, 209.369 332.738 C 221.219 334.074, 225.390 327.035, 223.072 309.615 C 221.064 294.523, 215.530 277.882, 209.830 269.790 C 207.537 266.536, 202.322 262.657, 201.686 263.732 M 91.854 304.428 C 74.873 313.357, 59.517 324.694, 49.312 335.836 C 43.164 342.549, 36.369 355.735, 35.437 362.764 C 34.295 371.372, 38.311 379.303, 45.500 382.638 C 47.150 383.404, 49.175 384.403, 50 384.859 C 50.825 385.316, 52.507 386.209, 53.737 386.845 C 57.147 388.607, 76.344 388.526, 85 386.713 C 89.125 385.849, 94.643 384.833, 97.262 384.456 C 99.882 384.078, 102.271 383.371, 102.571 382.885 C 102.872 382.398, 103.879 381.997, 104.809 381.994 C 105.739 381.990, 107.625 381.393, 109 380.667 C 110.375 379.941, 115.441 377.243, 120.258 374.673 C 125.074 372.103, 129.601 370, 130.317 370 C 131.032 370, 132.443 369.397, 133.451 368.660 C 135.183 367.393, 135.096 367.106, 131.858 363.410 C 121.834 351.968, 114.502 336.422, 104.920 306.292 C 103.834 302.878, 102.620 299.921, 102.223 299.721 C 101.825 299.520, 97.159 301.639, 91.854 304.428" stroke="none" fill="#0a161d" fill-rule="evenodd"/><path d="M 265.731 4.695 C 265.481 5.138, 264.524 8.200, 263.605 11.500 C 262.686 14.800, 260.839 21.100, 259.500 25.500 C 258.162 29.900, 256.321 36.200, 255.409 39.500 C 254.497 42.800, 253.379 46.400, 252.926 47.500 C 252.472 48.600, 251.152 52.999, 249.991 57.275 C 247.987 64.661, 248.015 69, 250.067 69 C 250.580 69, 251 69.627, 251 70.393 C 251 71.159, 251.675 72.045, 252.500 72.362 C 253.325 72.678, 254 73.626, 254 74.469 C 254 75.311, 254.450 76, 255 76 C 255.550 76, 256 76.554, 256 77.231 C 256 77.908, 256.872 80.720, 257.937 83.481 C 261.013 91.451, 261.326 92.383, 261.635 94.500 C 262.722 101.963, 263.309 102.993, 268.858 107.156 C 276.979 113.249, 290.360 126.929, 294.026 132.887 C 295.756 135.699, 297.530 138, 297.969 138 C 298.408 138, 299.011 138.787, 299.309 139.750 C 299.608 140.713, 301.069 144.875, 302.555 149 C 307.342 162.281, 306.420 184.552, 300.618 195.771 C 299.728 197.492, 299 199.728, 299 200.739 C 299 201.750, 298.100 204.342, 297 206.500 C 295.900 208.658, 295 211.140, 295 212.016 C 295 212.892, 293.650 215.737, 292 218.339 C 290.350 220.941, 289 223.348, 289 223.688 C 289 224.908, 283.887 234.621, 279.887 241 C 275.091 248.649, 271.828 255.161, 272.471 255.804 C 273.159 256.492, 279.313 250.952, 282.071 247.161 C 283.407 245.325, 285.662 242.400, 287.081 240.661 C 288.501 238.922, 289.974 236.825, 290.356 236 C 290.737 235.175, 292.814 231.350, 294.972 227.500 C 304.473 210.551, 311.899 194.318, 315.558 182.500 C 318.025 174.534, 318.353 171.891, 318.409 159.500 C 318.483 143.252, 316.694 133.947, 311.800 125.122 C 308.309 118.827, 308.136 118.487, 304.851 111.500 C 303.558 108.750, 301.333 104.700, 299.906 102.500 C 298.479 100.300, 294.904 93.550, 291.961 87.500 C 289.017 81.450, 286.329 76.275, 285.986 76 C 284.416 74.742, 279.296 59.908, 278.391 54 C 278.096 52.075, 277.155 47.125, 276.299 43 C 275.442 38.875, 274.581 34.600, 274.384 33.500 C 274.187 32.400, 273.524 29.025, 272.911 26 C 272.297 22.975, 271.278 16.905, 270.647 12.510 C 269.778 6.453, 269.099 4.444, 267.843 4.205 C 266.932 4.031, 265.982 4.252, 265.731 4.695 M 124.729 35.512 C 104.088 38.982, 88.191 46.704, 78.233 58.097 C 67.610 70.252, 65.584 90.936, 71.680 125 C 73.771 136.687, 79.538 155.383, 83.071 161.928 C 84.682 164.913, 86 167.773, 86 168.284 C 86 168.794, 87.350 170.917, 89 173 C 90.650 175.083, 92 177.077, 92 177.431 C 92 178.797, 102.269 190.800, 106.280 194.121 C 111.727 198.633, 119.603 204, 120.775 204 C 121.278 204, 122.547 204.949, 123.595 206.108 C 124.643 207.268, 126.894 208.955, 128.597 209.858 C 134.865 213.181, 142.348 217.582, 146.917 220.632 C 149.498 222.355, 153.385 224.665, 155.555 225.766 C 163.327 229.708, 167.265 231.928, 168.869 233.272 C 169.766 234.023, 173.875 236.592, 178 238.981 C 182.125 241.369, 186.573 244.151, 187.885 245.162 C 189.197 246.173, 190.810 247, 191.471 247 C 192.608 247, 211 185.498, 211 181.696 C 211 180.663, 209.161 179.152, 206.250 177.792 C 202.008 175.812, 188.929 168.537, 185 165.974 C 184.175 165.436, 182.600 164.554, 181.500 164.015 C 179.341 162.957, 174.696 160.074, 168.308 155.829 C 164.341 153.192, 156.772 144.863, 153.925 140 C 152.599 137.736, 149.034 127.154, 147.018 119.500 C 146.584 117.850, 146.156 112.225, 146.067 107 C 145.879 95.912, 147.926 90.235, 153.293 86.963 C 157.359 84.484, 165.846 84.440, 171.825 86.867 C 177.167 89.035, 180.882 95.257, 184.651 108.347 C 187.002 116.511, 187.911 120.865, 189.800 133 L 190.500 137.500 220.500 137.653 C 237 137.737, 254.213 138.053, 258.750 138.354 C 263.288 138.656, 267 138.579, 267 138.183 C 267 137.787, 265.650 132.079, 264 125.500 C 262.350 118.921, 261 112.800, 261 111.900 C 261 110.999, 259.858 106.940, 258.462 102.881 C 257.067 98.821, 255.472 93.733, 254.918 91.574 C 253.684 86.765, 248.084 75.246, 244.869 70.906 C 241.496 66.351, 231.867 56.933, 229.500 55.874 C 228.400 55.382, 225.700 53.848, 223.500 52.465 C 210.840 44.509, 193.616 38.447, 176.500 35.923 C 161.288 33.679, 136.786 33.484, 124.729 35.512 M 224.479 145.250 C 221.837 152.465, 220 158.701, 220 160.457 C 220 161.635, 219.577 163.028, 219.060 163.550 C 218.543 164.072, 217.909 165.625, 217.652 167 C 217.394 168.375, 216.700 170.746, 216.109 172.270 C 215.518 173.793, 214.337 178.068, 213.484 181.770 C 212.632 185.471, 211.055 190.862, 209.981 193.749 C 208.908 196.636, 207.790 200.354, 207.498 202.012 C 206.832 205.794, 202.807 220.554, 199.048 233 C 197.470 238.225, 193.918 250.600, 191.154 260.500 C 186.575 276.904, 186.196 279.056, 186.884 284.771 C 187.299 288.221, 187.719 291.258, 187.819 291.521 C 187.919 291.785, 188.027 292.788, 188.060 293.750 C 188.127 295.700, 191.492 284.511, 193.397 276 C 194.075 272.975, 195.162 269.233, 195.814 267.685 C 196.466 266.137, 197 264.039, 197 263.024 C 197 262.009, 197.848 258.775, 198.883 255.839 C 201.017 249.790, 204.178 239.673, 206.018 233 C 206.701 230.525, 207.829 226.700, 208.526 224.500 C 209.223 222.300, 210.341 218.475, 211.011 216 C 211.680 213.525, 212.587 210.600, 213.026 209.500 C 213.465 208.400, 215.043 202.775, 216.532 197 C 218.022 191.225, 219.903 184.700, 220.713 182.500 C 221.522 180.300, 222.113 178.500, 222.027 178.500 C 221.941 178.500, 222.069 177.825, 222.311 177 C 222.553 176.175, 223.770 171.900, 225.016 167.500 C 226.262 163.100, 228.118 156.995, 229.140 153.933 C 231.871 145.758, 231.664 144, 227.969 144 C 226.301 144, 224.731 144.563, 224.479 145.250 M 222.130 188.343 C 220.833 189.906, 202.990 250.912, 203.018 253.690 C 203.028 254.685, 205.373 257.454, 208.230 259.843 C 218.153 268.138, 224.737 282.926, 229.443 307.487 C 231.709 319.313, 228.917 331.833, 223.164 335.650 C 219.156 338.309, 208.711 339.121, 203.096 337.210 C 198.687 335.710, 193 331.197, 193 329.199 C 193 328.674, 192.325 327.685, 191.500 327 C 190.675 326.315, 190 324.775, 190 323.578 C 190 322.380, 189.611 320.973, 189.135 320.450 C 188.659 319.928, 187.729 316.575, 187.068 313 C 186.406 309.425, 185.219 303.575, 184.428 300 C 182.840 292.817, 180.447 281.543, 178.662 272.830 C 178.023 269.712, 177.238 266.900, 176.917 266.581 C 176.001 265.670, 114.811 264.668, 108.470 265.460 L 102.784 266.171 103.488 269.335 C 104.232 272.683, 106.446 283.474, 107.933 291 C 109.965 301.282, 115.671 321.602, 117.903 326.500 C 119.390 329.763, 126.387 343.961, 127.897 346.779 C 129.958 350.625, 142.813 363.255, 148 366.530 C 154.412 370.579, 166.488 376.725, 173.500 379.507 C 199.370 389.774, 239.906 391.579, 264.405 383.555 C 273.370 380.618, 286.257 374.600, 287.952 372.558 C 288.663 371.701, 289.827 371, 290.538 371 C 292.168 371, 302.174 359.606, 304.431 355.179 C 308.401 347.393, 309.179 326.494, 306.130 309.500 C 305.637 306.750, 304.505 300.450, 303.615 295.500 C 301.360 282.963, 298.897 272.716, 297.803 271.324 C 297.294 270.677, 296.977 269.552, 297.097 268.824 C 297.217 268.096, 297.090 266.825, 296.816 266 C 296.541 265.175, 295.532 262.025, 294.575 259 C 292.464 252.333, 289.082 245, 288.116 245 C 287.729 245, 285.406 247.419, 282.956 250.376 C 277.789 256.610, 273.292 260, 270.188 260 C 266.416 260, 267.425 255.138, 272.953 246.669 C 279.609 236.474, 281.207 233.218, 280.548 231.200 C 278.844 225.984, 248.691 200, 244.342 200 C 243.765 200, 242.160 198.988, 240.777 197.750 C 239.394 196.512, 236.965 194.798, 235.381 193.939 C 233.796 193.081, 230.423 191.161, 227.885 189.674 C 224.045 187.422, 223.080 187.199, 222.130 188.343 M 91.854 304.428 C 74.873 313.357, 59.517 324.694, 49.312 335.836 C 43.164 342.549, 36.369 355.735, 35.437 362.764 C 34.295 371.372, 38.311 379.303, 45.500 382.638 C 47.150 383.404, 49.175 384.403, 50 384.859 C 50.825 385.316, 52.507 386.209, 53.737 386.845 C 57.147 388.607, 76.344 388.526, 85 386.713 C 89.125 385.849, 94.643 384.833, 97.262 384.456 C 99.882 384.078, 102.271 383.371, 102.571 382.885 C 102.872 382.398, 103.879 381.997, 104.809 381.994 C 105.739 381.990, 107.625 381.393, 109 380.667 C 110.375 379.941, 115.441 377.243, 120.258 374.673 C 125.074 372.103, 129.601 370, 130.317 370 C 131.032 370, 132.443 369.397, 133.451 368.660 C 135.183 367.393, 135.096 367.106, 131.858 363.410 C 121.834 351.968, 114.502 336.422, 104.920 306.292 C 103.834 302.878, 102.620 299.921, 102.223 299.721 C 101.825 299.520, 97.159 301.639, 91.854 304.428" stroke="none" fill="#54aff2" fill-rule="evenodd"/></svg>